# xmcd CD database file
#
# Track frame offsets:
#	150
#	14475
#	40069
#	64764
#	90416
#	125216
#	151865
#	186514
#	201838
#
# Disc length: 3063 seconds
#
# Revision: 4
# Processed by: cddbd v1.5.2PL0 Copyright (c) Steve Scherf et al.
# Submitted via: CDex 2.21
#
DISCID=780bf509
DTITLE=Allan Holdsworth - None Too Soon
DYEAR=2003
DGENRE=Instrumental
TTITLE0=Countdown
TTITLE1=Nuages
TTITLE2=How Deep Is The Ocean
TTITLE3=Isotope
TTITLE4=None To Soon
TTITLE5=Norwegian Wood
TTITLE6=Very Early
TTITLE7=San Marcos
TTITLE8=Inner Urge
EXTD=YEAR: 2003
EXTT0=
EXTT1=
EXTT2=
EXTT3=
EXTT4=
EXTT5=
EXTT6=
EXTT7=
EXTT8=
PLAYORDER=
